<?xml version="1.0" encoding="UTF-8"?>
<!DOCTYPE svg PUBLIC "-//W3C//DTD SVG 1.1//EN" "http://www.w3.org/Graphics/SVG/1.1/DTD/svg11.dtd">
<!-- Creator: CorelDRAW 2020 (64 Bit) -->
<svg xmlns="http://www.w3.org/2000/svg" xml:space="preserve" width="210mm" height="190mm" version="1.1" style="shape-rendering:geometricPrecision; text-rendering:geometricPrecision; image-rendering:optimizeQuality; fill-rule:evenodd; clip-rule:evenodd"
viewBox="0 0 21000 19000"
 xmlns:xlink="http://www.w3.org/1999/xlink"
 xmlns:xodm="http://www.corel.com/coreldraw/odm/2003">
 <defs>
  <style type="text/css">
   <![CDATA[
    .str0 {stroke:black;stroke-width:79.38;stroke-miterlimit:22.9256}
    .fil8 {fill:none}
    .fil7 {fill:none;fill-rule:nonzero}
    .fil3 {fill:black;fill-rule:nonzero}
    .fil1 {fill:#7A1FA1;fill-rule:nonzero}
    .fil0 {fill:#E8E8E8;fill-rule:nonzero}
    .fil2 {fill:white;fill-rule:nonzero}
    .fil4 {fill:#9B9797;fill-rule:nonzero;fill-opacity:0.180392}
    .fil6 {fill:#9B9797;fill-rule:nonzero;fill-opacity:0.239216}
    .fil5 {fill:#9B9797;fill-rule:nonzero;fill-opacity:0.250980}
   ]]>
  </style>
   <clipPath id="id0">
    <path d="M-7.13 19008.05l21000 0 0 -18999.97 -21000 0 0 18999.97z"/>
   </clipPath>
 </defs>
 <g id="Camada_x0020_1">
  <metadata id="CorelCorpID_0Corel-Layer"/>
  <g>
  </g>
  <g style="clip-path:url(#id0)">
   <g>
    <path class="fil0" d="M35.11 15622.82c183.3,-89.76 261.14,-327.94 460.01,-390.07 204.1,-63.8 430.66,62.13 617.44,-75.95 81.25,-60.35 141.8,-160.48 240.37,-196.74 86.48,-31.07 176.41,3.45 259.42,29.38 70.91,22.44 141.83,43.14 212.72,65.55 285.37,88.02 569,174.33 854.36,262.33 323.41,98.36 645.09,198.49 968.48,296.88 31.13,10.37 44.98,-39.69 13.84,-50.08 -591.47,-181.18 -1181.22,-362.43 -1772.69,-543.61 -138.36,-41.44 -281.88,-105.31 -425.43,-122.58 -100.33,-12.05 -179.86,27.64 -250.78,93.19 -98.57,91.51 -172.93,176.08 -316.48,182.95 -119.34,6.92 -236.93,-24.14 -356.27,-5.12 -245.58,37.93 -321.69,305.43 -529.21,407.31 -31.13,17.25 -5.19,62.13 24.22,46.56z"/>
    <path class="fil0" d="M3142.92 15405.38c122.78,31.06 219.64,-91.51 330.33,-127.75 148.72,-50.05 307.84,-29.31 442.72,48.31 29.41,17.24 55.35,-27.62 25.94,-44.88 -114.14,-67.3 -243.85,-94.87 -375.28,-77.63 -57.07,6.88 -110.67,22.45 -162.57,44.89 -74.36,32.74 -160.84,127.67 -247.3,107 -32.88,-8.64 -46.7,41.44 -13.84,50.06z"/>
    <path class="fil0" d="M4476.33 15275.93c-115.89,-94.94 -226.55,-196.75 -330.33,-305.48 -48.42,-50.08 -95.12,-103.58 -140.07,-157.06 -25.97,-31.07 -51.9,-62.13 -76.12,-93.19 -17.29,-22.44 -34.58,-44.88 -50.14,-67.32 -27.67,-27.62 -27.67,-62.13 1.72,-100.14 20.76,8.65 53.62,-12.05 36.33,-36.23 -105.5,-141.5 -183.33,-296.82 -233.48,-466 -10.39,10.37 -20.76,20.74 -31.13,31.04 57.07,15.57 98.57,44.88 129.7,93.26 17.3,27.57 62.27,3.45 44.98,-25.93 -257.69,-445.26 -468.68,-914.7 -627.8,-1403.13 -13.82,8.62 -29.41,17.24 -43.23,25.87 724.63,711.07 1053.24,1700 1663.72,2495.69 20.77,25.89 65.72,0 44.98,-25.94 -612.24,-799.06 -944.29,-1791.42 -1672.39,-2505.99 -17.29,-17.24 -51.88,0 -43.23,25.87 160.84,493.63 371.83,966.56 632.97,1415.26 15.57,-8.64 29.41,-17.26 44.98,-25.89 -39.78,-60.37 -91.68,-100.11 -160.84,-117.37 -19.04,-5.18 -38.06,12.14 -31.14,31.06 51.88,172.63 131.44,333.14 238.66,478.13 12.12,-12.12 24.21,-24.19 36.33,-36.26 -48.43,-22.44 -102.05,0 -114.14,56.96 -15.57,81.11 83.01,170.85 127.98,227.81 153.92,191.55 328.58,365.85 518.81,521.17 22.49,20.76 58.82,-15.5 32.88,-36.19z"/>
    <path class="fil0" d="M4294.73 14197.25c-318.21,-474.63 -575.91,-983.81 -766.16,-1522.25 -5.17,10.32 -12.09,20.69 -17.29,31.06 58.82,-13.81 108.97,8.63 141.83,60.38 17.29,29.36 58.79,3.5 44.95,-25.86 -268.06,-578.2 -541.3,-1180.52 -522.28,-1831.21 -15.57,5.2 -32.86,8.62 -48.43,13.82 461.76,949.25 901.04,1910.55 1316.1,2880.57 12.12,27.56 57.07,6.87 46.7,-20.77 -69.19,-207.11 -136.63,-415.93 -205.79,-623.05 -32.86,-101.81 -67.47,-201.88 -100.32,-303.76 -22.47,-67.3 -70.89,-213.99 25.96,-250.25 -10.4,-3.42 -19.04,-8.62 -29.41,-12.05 124.51,243.31 247.3,486.69 371.83,730.07 15.57,29.31 60.52,3.42 44.95,-25.89 -134.88,-264.05 -197.15,-555.74 -185.03,-852.62 -17.31,1.75 -34.6,5.18 -50.17,6.88 359.74,892.3 776.53,1762.18 1245.21,2602.67 15.57,29.32 60.55,3.45 44.95,-25.86 -466.93,-837.07 -882,-1701.76 -1239.99,-2590.56 -10.39,-25.94 -50.17,-24.19 -50.17,6.87 -12.1,305.51 53.62,604.07 191.98,878.51 15.56,-8.63 29.41,-17.27 44.97,-25.89 -124.53,-243.38 -247.32,-486.74 -371.83,-730.07 -5.2,-8.62 -19.04,-15.54 -29.41,-12.11 -172.94,63.87 -62.27,310.67 -24.21,426.3 89.92,271.02 178.13,543.69 268.06,814.63 15.57,-6.87 31.13,-13.82 46.7,-20.69 -415.06,-969.99 -854.36,-1931.32 -1316.13,-2880.54 -12.09,-24.15 -48.42,-10.33 -48.42,13.79 -20.74,659.32 257.69,1272 529.23,1857.07 15.56,-8.62 29.38,-17.24 44.95,-25.86 -44.95,-70.78 -117.59,-101.84 -200.6,-84.57 -13.84,3.42 -22.49,18.99 -17.29,31.06 191.95,541.94 451.37,1056.24 771.33,1534.3 17.29,29.39 62.24,3.45 43.23,-24.12z"/>
    <path class="fil0" d="M877.35 17533.37c598.37,-288.19 1229.62,-581.62 1912.75,-512.55 323.41,32.74 636.45,126 958.11,167.36 162.59,20.77 326.88,29.39 489.45,10.4 152.19,-19.02 295.75,-74.2 444.47,-107.01 191.98,-43.14 366.64,1.75 551.69,53.5 152.2,41.44 302.65,75.92 460.04,39.69 32.86,-6.88 19.02,-56.96 -13.84,-50.08 -314.76,74.27 -610.49,-151.87 -928.72,-106.99 -157.37,22.45 -304.37,84.57 -460.02,112.19 -164.32,27.63 -332.06,24.18 -498.09,3.44 -326.86,-37.93 -645.1,-134.64 -973.68,-170.81 -323.41,-36.26 -643.35,5.11 -952.94,94.87 -352.79,103.56 -686.57,262.37 -1015.18,421.13 -31.13,13.8 -3.45,58.68 25.96,44.86z"/>
    <path class="fil0" d="M4388.13 18964.14c202.35,-86.27 401.22,-181.21 593.2,-288.19 100.3,-56.96 198.89,-115.63 297.47,-177.76 88.2,-57 176.39,-138.12 273.24,-179.5 108.96,-44.89 273.26,39.68 382.2,72.49 115.89,36.19 231.76,70.75 345.87,107.01 236.96,72.43 473.89,144.95 709.14,217.44 31.11,10.37 44.93,-39.68 13.82,-50.08 -252.52,-77.62 -506.77,-155.29 -759.26,-232.98 -121.04,-37.94 -242.11,-74.2 -363.17,-112.18 -93.4,-29.32 -210.99,-89.77 -309.57,-65.58 -91.67,22.44 -174.68,101.81 -252.49,153.64 -100.32,65.55 -204.1,129.43 -307.84,189.8 -209.27,119.13 -425.46,226.14 -648.55,319.33 -31.13,13.79 -3.47,58.67 25.94,46.56z"/>
    <path class="fil0" d="M6539.56 19017.69c131.43,-65.63 262.86,-132.95 394.32,-198.5 121.06,-62.13 250.75,-144.99 389.12,-157.06 140.06,-13.82 249.05,77.69 370.11,131.19 102,44.86 212.7,70.75 323.39,77.63 259.44,13.79 501.57,-115.63 759.24,-101.81 205.82,12.04 413.31,181.25 615.68,74.24 29.39,-15.57 3.45,-60.45 -25.94,-44.88 -126.23,67.32 -262.86,1.7 -387.42,-37.99 -107.2,-34.51 -210.99,-50.08 -323.39,-37.93 -266.36,27.54 -510.19,139.74 -783.42,75.92 -226.56,-51.81 -399.5,-239.93 -643.37,-169.18 -112.44,32.81 -217.89,94.93 -321.69,146.74 -131.45,65.57 -262.89,132.87 -394.32,198.45 -27.61,13.81 -1.68,58.67 27.69,43.18z"/>
    <path class="fil0" d="M7549.56 18643.14c-107.24,-93.19 -204.07,-196.75 -283.63,-315.83 -36.3,-53.51 -69.19,-110.51 -100.32,-167.43 -15.54,-29.32 -29.36,-58.68 -41.48,-88 -10.39,-24.19 -20.76,-46.63 -29.46,-70.74 -15.54,-25.94 -8.62,-50.08 20.81,-72.52 15.57,-6.93 31.14,-13.8 46.71,-20.74 -190.26,-279.57 -309.57,-597.12 -349.37,-931.94 -15.57,6.87 -29.39,12.07 -44.96,18.99 31.14,39.69 62.27,79.39 95.13,120.83 19.01,24.12 55.32,-6.95 41.5,-31.14 -300.94,-536.74 -461.81,-1140.8 -465.23,-1755.19 -15.57,6.88 -29.39,12.08 -44.96,18.95 117.57,94.94 207.5,212.31 262.89,352.13 15.55,-6.94 31.11,-13.82 46.68,-20.76 -134.93,-284.74 -162.57,-605.74 -83.01,-909.5 -17.31,0 -32.86,0 -50.17,0 354.57,1013.06 707.36,2024.44 1061.86,3037.56 10.39,31.07 60.56,17.25 50.19,-13.82 -178.13,-519.49 -266.38,-1064.85 -261.18,-1615.41 -15.57,6.87 -29.37,12.04 -44.93,18.99 105.49,94.86 171.19,213.99 195.42,353.81 5.2,29.31 51.88,22.44 50.13,-6.95 -5.18,-105.23 -12.05,-212.24 -17.25,-317.55 -13.86,6.92 -26,15.57 -39.8,22.44 91.68,58.68 108.92,214 138.35,310.68 31.14,103.56 62.27,207.07 95.13,312.38 64.02,213.99 129.71,426.31 193.7,640.3 129.69,426.33 259.44,854.31 389.13,1280.64 10.37,31.07 60.49,18.93 50.12,-13.81 -140.08,-459.12 -278.43,-919.94 -418.51,-1379.01 -67.44,-224.36 -136.63,-448.75 -204.05,-673.11 -34.63,-115.63 -69.18,-229.51 -103.81,-345.19 -22.45,-70.75 -48.38,-134.62 -112.37,-176.01 -15.57,-10.37 -39.83,3.43 -39.83,22.44 5.2,105.24 12.14,212.25 17.31,317.55 17.32,-1.75 34.63,-5.17 50.2,-6.92 -24.26,-148.44 -96.87,-277.89 -209.31,-377.95 -17.25,-15.57 -43.19,-5.17 -44.93,18.94 -5.2,554.06 82.98,1104.62 262.86,1629.26 17.32,-5.12 32.88,-8.64 50.13,-13.77 -354.5,-1013.12 -707.32,-2024.48 -1061.88,-3037.6 -8.63,-22.45 -43.26,-25.89 -50.13,0 -82.98,319.29 -51.87,652.37 88.18,949.25 12.14,25.86 58.82,6.92 46.7,-20.7 -58.82,-148.44 -150.45,-274.44 -276.68,-374.57 -17.32,-13.75 -45,-5.13 -45,19.02 3.49,623.05 166.06,1237.48 472.18,1781.12 13.82,-10.32 27.64,-20.69 41.5,-31.06 -31.13,-39.69 -62.31,-79.4 -95.12,-120.83 -13.87,-17.24 -46.68,-3.42 -45,19.02 39.8,345.19 160.86,671.36 356.31,957.87 17.25,24.19 51.88,8.62 46.68,-20.69 -8.67,-48.38 -65.74,-65.62 -105.5,-36.26 -72.61,51.75 -1.75,174.31 24.19,233.01 98.58,219.19 245.58,410.74 427.18,567.8 36.33,18.94 72.64,-17.24 46.7,-37.98z"/>
    <path class="fil0" d="M5740.56 14771.93c-22.49,-324.42 567.24,-138.05 731.55,-106.98 269.77,50.05 537.88,100.11 807.64,150.19 537.88,100.06 1077.43,200.17 1615.3,300.3 32.88,6.88 46.7,-43.18 13.82,-50.05 -617.39,-115.63 -1233.07,-229.59 -1850.5,-345.19 -302.63,-56.95 -605.32,-113.95 -907.94,-169.14 -108.95,-20.74 -235.21,-43.18 -337.25,13.82 -77.81,41.37 -129.71,117.31 -122.79,207.05 0,32.81 53.62,32.81 50.17,0z"/>
    <path class="fil0" d="M8537.06 15058.44c179.88,18.99 290.55,-151.86 430.63,-234.68 119.36,-69.07 223.11,-15.57 345.92,8.62 136.63,27.61 276.71,31.06 415.06,13.82 32.81,-3.52 32.81,-55.25 0,-51.83 -155.67,19.02 -311.31,12.14 -463.48,-25.86 -91.71,-24.19 -174.69,-53.51 -266.32,-17.25 -162.61,62.13 -273.31,276.12 -461.81,255.43 -32.81,-3.43 -32.81,48.3 0,51.75z"/>
    <path class="fil0" d="M11835.12 18377.39c415.07,-145.02 833.62,-290.01 1262.51,-393.57 447.92,-107.01 899.31,-150.14 1359.37,-136.32 454.8,13.82 906.19,65.57 1359.31,107.01 454.87,43.11 909.69,84.56 1364.55,127.74 522.33,48.31 1046.32,96.62 1568.62,146.7 32.84,3.42 32.84,-48.33 0,-51.83 -932.17,-86.24 -1864.37,-172.56 -2798.24,-260.55 -897.61,-82.89 -1800.38,-205.44 -2694.5,-20.77 -491.19,101.82 -965.05,267.52 -1437.18,431.51 -29.37,10.32 -15.57,60.38 15.56,50.08z"/>
    <path class="fil0" d="M13663.19 16679.06c309.56,-65.55 600.07,-195 892.37,-312.38 312.99,-124.23 629.5,-210.54 965,-239.86 339,-29.39 679.68,-12.14 1016.93,8.62 339,20.7 677.93,44.88 1018.63,69 396.07,29.36 793.87,62.13 1189.87,96.69 32.88,3.45 32.88,-48.38 0,-51.81 -702.12,-62.12 -1404.31,-115.63 -2108.17,-160.51 -669.34,-43.13 -1328.2,-60.38 -1966.4,176.06 -339,126 -667.56,286.51 -1023.8,362.45 -29.43,8.63 -17.32,58.68 15.57,51.74z"/>
    <path class="fil0" d="M17649.55 14689.14c247.32,-188.13 508.44,-372.83 785.12,-514.33 134.96,-69.07 280.21,-124.3 432.38,-136.37 164.32,-13.82 328.63,18.99 489.45,39.69 326.88,39.68 655.49,63.87 984.05,84.56 217.93,13.82 494.64,44.89 648.56,-144.94 20.77,-25.94 -15.56,-62.13 -36.3,-36.24 -174.69,215.74 -543.07,134.63 -781.75,119.06 -328.56,-22.44 -653.69,-53.51 -980.58,-94.94 -140.1,-17.24 -278.43,-31.06 -418.55,-5.12 -138.31,24.11 -268.07,79.37 -390.81,144.94 -266.38,141.5 -518.88,317.55 -759.26,500.48 -24.19,19.02 1.75,63.87 27.69,43.21z"/>
    <path class="fil0" d="M8128.94 14404.32c245.55,-184.63 492.88,-367.63 738.43,-552.26 235.25,-176.05 454.89,-360.75 762.68,-376.25 290.58,-13.82 588.07,18.99 876.88,43.14 311.31,25.86 620.88,60.42 928.7,103.56 259.44,36.23 568.98,132.87 814.56,-1.75 29.43,-15.5 3.49,-60.38 -25.94,-44.88 -126.26,69.07 -266.32,69.07 -406.37,51.8 -150.5,-18.99 -300.95,-44.86 -451.44,-65.62 -290.51,-39.69 -582.83,-72.43 -876.83,-96.62 -288.8,-24.19 -588,-58.7 -876.8,-41.43 -268.07,15.57 -466.94,153.61 -676.25,310.68 -278.44,207.11 -555.12,415.93 -833.56,623.05 -25.93,22.44 0,67.32 25.94,46.58z"/>
    <path class="fil0" d="M17858.82 16228.63c15.56,-113.95 38.05,-224.38 70.93,-334.82 15.57,-51.8 31.11,-103.56 51.88,-155.36 12.04,-31.06 44.93,-82.82 89.93,-70.77 22.44,6.94 32.81,84.57 34.55,100.13 3.45,27.64 41.51,36.26 50.13,6.88 81.31,-264.07 174.69,-554.01 423.76,-707.63 -13.82,-6.87 -25.94,-15.49 -39.81,-22.44 0,43.18 -1.7,88.07 -1.7,131.2 0,24.19 36.31,36.24 48.45,13.8 153.88,-319.3 321.62,-654.12 632.93,-847.42 -12.07,-10.32 -25.94,-18.95 -38.05,-29.32 -155.63,402.12 -337.21,793.87 -543,1173.62 -13.89,24.12 20.74,55.18 41.5,31.06 115.87,-138.05 233.43,-276.19 385.68,-376.25 -12.12,-12.12 -24.26,-24.19 -36.38,-36.24 -191.93,403.87 -401.2,797.36 -631.25,1180.49 -17.25,29.32 27.68,55.25 45,25.89 228.26,-383.13 439.25,-776.65 631.25,-1180.51 10.37,-20.69 -12.12,-51.76 -36.31,-36.26 -155.69,103.58 -276.75,243.38 -396.07,384.9 13.82,10.37 27.69,20.74 41.5,31.04 207.57,-383.11 390.88,-778.37 548.25,-1185.69 8.62,-20.67 -20.74,-39.68 -38.06,-29.31 -319.93,198.44 -492.87,538.44 -651.99,866.38 15.54,5.2 32.86,8.62 48.43,13.82 0,-43.13 1.74,-88.02 1.74,-131.2 0,-18.94 -22.48,-32.74 -39.8,-22.44 -259.37,160.51 -361.44,460.82 -446.2,738.69 17.32,1.75 34.56,5.19 50.13,6.94 -8.62,-88.06 -88.18,-238.18 -184.98,-126 -48.45,56.93 -67.52,150.12 -88.26,220.94 -34.58,113.88 -58.74,231.26 -76.06,350.31 -1.75,34.56 46.68,48.31 51.88,15.57z"/>
    <path class="fil0" d="M5775.15 13315.32c134.88,-72.52 271.53,-145.01 420.26,-184.7 157.39,-41.43 313.01,-27.61 470.41,-6.87 313.06,41.39 626.05,82.82 937.37,124.25 32.88,5.2 32.88,-46.63 0,-51.8 -333.81,-44.88 -669.31,-93.19 -1003.07,-132.88 -153.94,-19.01 -300.94,-19.01 -449.69,24.19 -141.8,41.37 -273.24,112.18 -402.95,181.18 -29.41,19 -1.74,62.13 27.67,46.63z"/>
    <path class="fil0" d="M16295.37 1608.52c124.56,-105.26 299.19,-84.57 435.82,-17.24 103.8,50.05 188.55,151.86 309.62,157.04 112.37,3.45 205.75,-72.48 300.87,-122.53 63.99,-32.79 129.76,-55.23 202.37,-39.71 77.81,15.54 145.25,60.43 216.19,91.49 233.43,101.83 389.13,-39.71 586.25,-151.89 55.37,-31.06 114.19,-58.68 178.14,-63.85 81.3,-6.9 153.92,29.34 226.56,60.4 114.18,48.33 200.62,67.32 316.48,20.72 119.32,-46.61 216.19,-39.69 335.51,3.45 76.13,27.61 148.75,62.12 228.3,79.39 119.32,27.61 247.33,20.72 337.26,-70.77 24.19,-24.14 -13.87,-60.4 -36.31,-36.24 -115.87,117.36 -292.3,62.13 -425.43,10.37 -134.93,-51.8 -273.26,-107.01 -416.81,-53.53 -89.93,34.54 -150.5,58.7 -247.33,25.89 -65.74,-22.41 -126.23,-58.67 -193.67,-77.64 -102.08,-31.09 -197.2,-13.82 -290.58,32.78 -107.24,53.51 -200.62,138.08 -313.06,182.93 -148.68,58.7 -264.55,-18.96 -399.5,-75.92 -98.55,-41.43 -191.93,-48.33 -290.5,-5.19 -119.36,53.52 -235.23,170.88 -375.31,120.82 -74.36,-25.89 -133.18,-86.29 -200.62,-124.27 -57.07,-31.07 -119.32,-53.51 -183.31,-65.58 -122.81,-22.44 -242.12,-1.72 -339,79.4 -24.19,25.89 13.87,62.12 38.06,39.68z"/>
    <path class="fil0" d="M16918 2787.31c32.88,0 32.88,-51.78 0,-51.78 -32.89,0 -32.89,51.78 0,51.78z"/>
    <path class="fil0" d="M17263.87 2975.43c81.31,-146.69 273.26,-75.94 392.55,-27.61 119.39,48.33 226.58,77.67 352.82,34.51 103.82,-36.23 197.2,-105.28 304.37,-129.42 148.77,-34.54 233.5,91.46 368.39,120.8 210.99,46.61 423.75,-188.13 622.63,-89.74 55.37,27.61 93.37,63.85 159.11,58.68 60.5,-3.45 115.87,-32.79 174.69,-46.61 164.24,-37.96 335.5,-8.62 482.5,72.5 29.39,15.52 55.33,-29.34 25.94,-44.89 -93.38,-51.77 -193.68,-82.84 -299.2,-93.18 -53.62,-5.18 -108.92,-3.45 -162.54,5.17 -64.02,8.62 -122.81,36.24 -185.08,48.33 -84.73,15.52 -121.06,-25.89 -190.25,-55.23 -34.56,-13.82 -72.61,-20.72 -108.92,-18.99 -86.51,3.45 -169.51,39.68 -249.07,69.05 -102,37.96 -210.99,74.19 -314.74,22.41 -88.21,-43.13 -157.4,-108.73 -261.14,-108.73 -214.49,1.75 -364.94,207.12 -591.5,144.99 -167.74,-46.6 -437.55,-210.56 -562.06,10.35 -19,31.06 25.93,56.95 41.5,27.61z"/>
    <path class="fil0" d="M15586.3 5041.32c122.81,-96.63 262.89,-91.46 397.75,-29.33 74.39,34.53 153.95,67.32 231.76,20.71 45,-27.61 74.38,-70.75 128.01,-86.29 57.04,-17.27 117.61,-5.17 172.93,8.62 98.55,24.17 193.68,67.33 295.75,74.22 121.06,8.63 231.76,-43.13 349.37,-55.22 126.26,-12.08 214.44,63.85 332.01,81.11 114.19,15.55 202.37,-75.94 316.49,-58.67 138.37,20.69 275,67.3 411.63,101.83 32.86,8.62 46.68,-41.43 13.8,-50.05 -143.48,-36.26 -292.25,-91.49 -439.25,-107.01 -124.49,-13.82 -214.42,88.01 -339,50.05 -115.87,-34.53 -198.88,-84.56 -323.36,-67.32 -133.19,18.99 -254.25,70.77 -390.88,41.43 -105.49,-22.44 -207.49,-72.49 -316.51,-79.39 -39.73,-1.73 -81.24,1.72 -119.32,17.24 -48.42,19 -74.36,58.7 -119.29,84.59 -103.82,60.41 -243.87,-67.32 -354.56,-75.94 -105.5,-8.65 -202.33,27.61 -285.38,91.46 -25.94,22.44 12.12,58.68 38.05,37.96z"/>
    <path class="fil0" d="M5671.37 1275.43c32.86,0 32.86,-51.78 0,-51.78 -32.85,0 -32.85,51.78 0,51.78z"/>
    <path class="fil0" d="M5823.57 1315.14c31.13,-153.62 235.21,-55.23 309.57,-8.65 84.73,53.5 174.66,101.83 278.41,72.5 112.44,-32.79 188.5,-129.45 313.06,-136.35 117.57,-5.17 231.76,48.33 342.45,82.84 95.13,29.34 195.42,50.06 294,25.89 115.87,-27.61 214.44,-108.73 332.05,-129.45 231.76,-39.68 441,148.44 676.21,75.95 31.11,-10.37 18.99,-60.4 -13.82,-50.06 -245.62,77.67 -479.08,-139.79 -728.13,-62.12 -128,39.68 -235.18,129.45 -375.3,124.25 -129.71,-5.17 -247.25,-67.3 -370.07,-98.36 -96.87,-24.17 -195.44,-31.07 -288.82,12.07 -53.62,24.16 -100.3,63.85 -153.92,89.74 -88.21,41.43 -162.57,17.26 -242.13,-27.62 -86.48,-50.03 -160.84,-108.73 -266.34,-100.08 -74.36,5.17 -140.08,43.13 -153.92,119.08 -8.65,29.33 41.5,43.15 46.7,10.37z"/>
    <path class="fil0" d="M5980.94 11392.63c205.82,-86.24 413.36,67.3 620.86,77.69 107.27,5.18 211.02,-20.69 316.51,-41.45 133.18,-25.87 247.3,-27.62 375.31,25.89 77.81,32.81 148.7,53.5 228.26,22.44 45,-17.27 83.05,-46.58 127.98,-62.13 50.13,-17.27 102.07,-20.69 155.62,-20.69 185.08,3.42 370.14,67.3 546.52,-15.57 29.44,-13.82 3.5,-58.63 -25.93,-44.88 -188.51,88.06 -397.75,-8.62 -596.65,12.14 -95.1,10.3 -157.37,65.55 -245.55,91.44 -105.5,31.07 -209.31,-58.7 -313.06,-74.19 -223.14,-34.52 -434.06,89.74 -658.94,44.88 -179.81,-36.26 -361.44,-141.57 -544.75,-63.88 -29.41,12.05 -15.56,62.13 13.82,48.31z"/>
    <path class="fil1" d="M2241.88 8850.38c150.92,0 273.26,-122.06 273.26,-272.69 0,-150.57 -122.34,-272.7 -273.26,-272.7 -150.92,0 -273.26,122.13 -273.26,272.7 0,150.63 122.34,272.69 273.26,272.69z"/>
    <path class="fil1" d="M18147.62 6976.06c105.99,0 192,-85.74 192,-191.55 0,-105.82 -86.01,-191.57 -192,-191.57 -105.99,0 -191.93,85.75 -191.93,191.57 0,105.81 85.94,191.55 191.93,191.55z"/>
    <path class="fil1" d="M16419.93 302.03c78.33,0 141.82,-63.38 141.82,-141.54 0,-78.14 -63.49,-141.52 -141.82,-141.52 -78.38,0 -141.81,63.38 -141.81,141.52 0,78.16 63.43,141.54 141.81,141.54z"/>
    <path class="fil1" d="M10173.12 12574.87c97.44,0 176.44,-78.81 176.44,-176.06 0,-97.18 -79,-176.01 -176.44,-176.01 -97.44,0 -176.38,78.83 -176.38,176.01 0,97.25 78.94,176.06 176.38,176.06z"/>
    <path class="fil1" d="M2041.26 2576.77c111.75,0 202.34,-90.41 202.34,-201.95 0,-111.52 -90.59,-201.92 -202.34,-201.92 -111.76,0 -202.35,90.4 -202.35,201.92 0,111.54 90.59,201.95 202.35,201.95z"/>
    <path class="fil1" d="M9017.86 9661.56c64.02,0 115.89,-51.76 115.89,-115.63 0,-63.87 -51.87,-115.61 -115.89,-115.61 -63.99,0 -115.86,51.74 -115.86,115.61 0,63.87 51.87,115.63 115.86,115.63z"/>
    <path class="fil1" d="M19954.87 10645.32c97.44,0 176.43,-78.82 176.43,-176 0,-97.26 -78.99,-176.06 -176.43,-176.06 -97.37,0 -176.39,78.8 -176.39,176.06 0,97.18 79.02,176 176.39,176z"/>
    <path class="fil1" d="M726.88 13555.18c72.59,0 131.43,-58.75 131.43,-131.17 0,-72.45 -58.84,-131.13 -131.43,-131.13 -72.59,0 -131.44,58.68 -131.44,131.13 0,72.42 58.85,131.17 131.44,131.17z"/>
    <path class="fil2" d="M6102 3362.03c-150.47,305.51 -302.67,610.99 -453.11,916.47 622.6,833.6 1245.16,1665.49 1867.79,2499.07 160.87,-243.31 319.94,-491.88 480.8,-742.11 378.76,-593.72 740.2,-1180.51 1086.08,-1762.14 -117.57,-298.58 -236.93,-598.89 -354.5,-897.47 -76.13,-39.71 -152.2,-77.67 -228.31,-117.35 -736.75,1.72 -1473.49,3.45 -2208.49,5.17 -65.74,34.51 -128.01,67.3 -190.26,98.36z"/>
    <path class="fil3" d="M5669.65 4292.29c131.43,-288.21 266.31,-574.72 404.69,-859.49 13.82,-29.33 -29.41,-56.95 -44.97,-25.89 -138.36,284.77 -273.26,571.28 -404.7,859.49 -13.84,29.34 31.14,56.98 44.98,25.89z"/>
    <path class="fil3" d="M5635.04 4323.36c608.77,833.62 1229.65,1656.87 1862.65,2473.2 20.74,25.89 57.05,-10.3 36.31,-36.24 -629.58,-812.88 -1246.94,-1632.68 -1853.98,-2462.85 -19.04,-25.87 -63.99,0 -44.98,25.89z"/>
    <path class="fil3" d="M6086.44 3403.47c72.63,-37.96 143.55,-77.67 216.19,-115.63 29.36,-15.55 3.42,-60.43 -25.94,-44.89 -72.66,37.99 -143.55,77.67 -216.19,115.63 -31.13,17.27 -3.47,60.41 25.94,44.89z"/>
    <path class="fil3" d="M6345.88 3291.28c539.55,0 1080.87,0 1620.49,0 32.82,0 32.82,-51.77 0,-51.77 -539.62,0 -1080.94,0 -1620.49,0 -32.88,0 -32.88,51.77 0,51.77z"/>
    <path class="fil3" d="M9107.82 4268.13c-109.02,-288.22 -221.39,-572.98 -337.26,-859.49 -12.14,-31.06 -62.24,-17.27 -50.19,13.79 115.89,284.79 228.3,571.28 337.25,859.52 12.12,31.06 62.24,17.24 50.2,-13.82z"/>
    <path class="fil3" d="M9050.67 4294.02c-506.67,828.45 -1023.8,1651.7 -1551.3,2468.05 -19,27.62 25.93,53.48 45,25.87 527.5,-816.33 1044.56,-1637.86 1551.3,-2468.03 17.32,-27.62 -27.68,-55.23 -45,-25.89z"/>
    <path class="fil3" d="M8739.43 3355.14c-60.57,-37.97 -121.06,-77.67 -181.63,-115.63 -27.69,-17.27 -53.62,25.89 -25.94,44.88 60.57,37.96 121.07,77.67 181.63,115.63 29.39,18.99 55.33,-25.89 25.94,-44.88z"/>
    <path class="fil3" d="M8499 3234.33c-451.39,0 -902.76,0 -1352.45,0 -32.81,0 -32.81,51.78 0,51.78 451.44,0 902.81,0 1352.45,0 32.86,0 32.86,-51.78 0,-51.78z"/>
    <path class="fil3" d="M5690.39 4318.18c309.59,-132.9 619.16,-265.77 928.72,-398.67 31.14,-13.82 3.45,-56.95 -25.93,-44.88 -309.57,132.9 -619.16,265.8 -928.73,398.69 -29.38,13.8 -3.45,58.68 25.94,44.86z"/>
    <path class="fil3" d="M6095.08 3387.92c190.23,29.34 377.03,70.77 562.04,122.55 32.88,8.63 46.75,-41.43 13.87,-50.05 -185.06,-53.51 -371.81,-93.19 -562.06,-122.53 -32.86,-5.2 -48.43,44.86 -13.85,50.03z"/>
    <path class="fil3" d="M6643.3 3501.85c41.51,129.45 77.81,258.88 108.95,391.77 6.94,32.79 57.12,19 50.17,-13.82 -31.11,-132.87 -67.42,-262.32 -108.92,-391.77 -10.37,-31.06 -60.57,-18.99 -50.2,13.82z"/>
    <path class="fil3" d="M6722.86 3507.02c463.51,0 925.25,0 1388.77,0 32.85,0 32.85,-51.77 0,-51.77 -463.52,0 -925.26,0 -1388.77,0 -32.86,0 -32.86,51.77 0,51.77z"/>
    <path class="fil3" d="M8089.11 3517.37c-17.24,94.94 -34.55,191.58 -51.87,286.51 -5.17,32.79 45,46.59 50.2,13.8 17.24,-94.91 34.56,-191.58 51.87,-286.49 5.17,-32.81 -45,-46.61 -50.2,-13.82z"/>
    <path class="fil3" d="M6779.93 3897.07c404.7,0 809.39,0 1215.81,0 32.88,0 32.88,-51.78 0,-51.78 -404.67,0 -809.37,0 -1215.81,0 -32.88,0 -32.88,51.78 0,51.78z"/>
    <path class="fil3" d="M8161.8 3507.02c188.5,-39.7 375.26,-79.39 563.76,-119.1 32.86,-6.9 19.07,-56.95 -13.82,-50.03 -188.5,39.69 -375.3,79.39 -563.81,119.08 -32.88,6.9 -18.99,56.95 13.87,50.05z"/>
    <path class="fil3" d="M8075.32 3881.53c174.68,27.61 337.23,126 496.37,200.22 169.44,79.39 337.18,158.79 506.67,238.16 29.46,13.82 57.07,-31.07 25.96,-44.86 -179.84,-84.57 -358.02,-167.41 -537.83,-251.98 -152.17,-72.49 -309.61,-163.96 -477.38,-191.57 -32.81,-5.2 -46.67,44.86 -13.79,50.03z"/>
    <path class="fil3" d="M6795.5 3976.47c224.86,925.08 447.92,1851.89 672.76,2776.98 8.67,32.81 57.04,18.99 50.17,-13.82 -224.81,-925.09 -447.95,-1851.9 -672.76,-2776.98 -8.67,-32.79 -58.79,-18.97 -50.17,13.82z"/>
    <path class="fil3" d="M8002.68 4038.59c-210.99,890.58 -385.68,1791.5 -520.56,2697.59 -5.19,32.77 44.93,46.56 50.13,13.82 134.88,-906.12 309.57,-1805.31 520.56,-2697.59 8.69,-32.81 -41.51,-46.61 -50.13,-13.82z"/>
    <path class="fil3" d="M8019.93 2310.97c77.88,-198.47 121.06,-407.32 128,-621.31 1.75,-32.81 -50.12,-32.81 -51.87,0 -6.95,208.82 -50.13,412.49 -126.26,607.51 -12.12,31.07 38.08,43.14 50.13,13.8z"/>
    <path class="fil3" d="M8374.49 2345.48c165.99,-188.12 352.82,-353.81 562.07,-493.6 27.68,-18.97 1.74,-63.86 -25.94,-44.86 -212.69,141.52 -404.69,310.65 -572.43,502.23 -22.52,24.16 13.81,60.4 36.3,36.23z"/>
    <path class="fil3" d="M8715.19 2664.78c214.49,-63.85 435.81,-88.01 658.94,-70.77 32.86,1.75 32.86,-50.03 0,-51.76 -228.33,-17.26 -453.14,6.9 -672.76,72.48 -31.13,10.37 -18.99,60.42 13.82,50.05z"/>
    <path class="fil0" d="M5071.26 1454.93c20.74,341.72 -171.22,667.91 -479.08,816.35 -17.29,8.63 -15.55,34.52 0,44.86 281.9,169.16 411.61,479.81 486,785.29 8.64,32.79 57.07,19 50.15,-13.81 -77.84,-319.28 -216.19,-642.03 -510.19,-816.34 0,15.52 0,29.34 0,44.86 323.41,-157.04 527.48,-503.95 504.99,-861.21 -1.72,-32.79 -53.6,-32.79 -51.87,0z"/>
    <path class="fil0" d="M5090.27 1454.93c-22.49,358.98 181.58,705.9 504.99,861.21 0,-15.52 0,-29.34 0,-44.86 -295.72,176.04 -434.07,498.78 -511.91,819.81 -8.65,32.79 41.5,46.58 50.15,13.79 74.39,-307.2 204.07,-619.58 487.72,-788.74 15.55,-8.62 17.3,-36.23 0,-44.86 -307.86,-148.44 -501.54,-474.63 -480.8,-816.35 3.47,-32.79 -48.42,-32.79 -50.15,0z"/>
    <path class="fil3" d="M13510.99 14411.25c60.49,-25.87 143.5,-63.88 238.63,-117.38 159.12,-87.99 238.7,-132.88 287.12,-203.62 62.25,-93.24 38.01,-143.25 119.32,-236.51 12.12,-15.49 69.19,-75.92 143.55,-108.68 127.94,-53.48 247.32,10.32 446.2,81.14 183.3,65.55 326.88,96.61 613.93,160.49 114.12,25.89 252.5,51.75 453.12,113.88 57.07,17.24 102.07,32.81 133.21,43.18 3.42,36.26 5.17,129.45 -55.4,213.99 -27.68,37.94 -65.67,69 -126.23,96.64 -140.06,65.62 -273.26,53.5 -385.7,48.31 -242.13,-10.3 -141.81,24.19 -712.49,34.56 -124.51,1.7 -226.56,1.7 -297.5,1.7 -88.2,60.42 -176.38,122.55 -266.31,186.42 -152.2,110.43 -297.45,220.89 -435.83,329.62 -51.87,-213.99 -103.75,-429.73 -155.62,-643.74z"/>
    <path class="fil2" d="M12789.81 12202.14c-124.56,65.55 -138.38,89.66 -601.87,483.23 -722.88,612.69 -802.44,645.45 -1457.95,1216.75 -627.73,545.39 -745.37,681.68 -864.69,861.19 -297.49,453.94 -363.19,833.62 -382.25,1018.32 -25.94,248.51 -60.49,593.69 159.14,866.36 138.36,170.89 318.24,241.63 378.74,264.07 181.63,69.08 330.33,60.45 598.39,41.44 356.29,-25.87 627.8,-94.94 735.05,-124.25 117.56,-32.82 390.82,-113.93 733.25,-283.07 321.68,-158.81 460.06,-276.12 899.31,-571.25 195.45,-131.17 484.26,-322.75 847.44,-543.68 22.49,-172.56 3.5,-307.19 -15.56,-391.75 -44.93,-200.25 -136.63,-338.32 -238.63,-490.18 -83.06,-124.26 -162.62,-219.19 -217.94,-281.32 129.69,-98.38 299.2,-239.88 477.31,-429.75 119.38,-127.75 307.89,-331.37 465.26,-617.86 193.67,-352.07 387.38,-707.65 262.86,-952.7 -195.42,-384.88 -1125.87,-402.12 -1777.86,-65.55z"/>
    <path class="fil4" d="M14339.37 12390.26c-98.55,227.81 -261.12,550.49 -520.56,895.68 -377.01,498.8 -757.49,774.94 -1331.7,1184.01 -1623.92,1156.3 -2059.74,1420.37 -2011.29,1530.87 65.66,150.12 980.55,-119.13 1113.73,-158.81 971.95,-286.51 1687.93,-728.32 2135.88,-1051.06 -114.12,-174.33 -228.31,-348.64 -342.43,-521.2 140.06,-100.13 333.81,-258.95 515.37,-495.38 100.32,-129.42 252.49,-329.62 351.07,-631.68 100.3,-300.3 103.82,-567.82 89.93,-752.43z"/>
    <path class="fil3" d="M12782.86 12200.39c-615.68,457.37 -1215.8,937.18 -1793.43,1439.36 -276.69,239.93 -553.44,479.81 -812.81,737.01 -230.06,227.81 -444.5,479.81 -574.18,780.04 -134.96,310.71 -172.94,669.71 -140.13,1006.26 27.69,277.89 129.76,557.45 383.93,702.45 266.39,150.11 601.89,134.62 895.89,103.55 361.42,-36.26 717.73,-124.32 1054.94,-260.62 752.31,-305.5 1342.06,-876.75 2052.87,-1254.75 29.43,-15.5 3.5,-60.38 -25.94,-44.89 -593.19,315.88 -1098.18,771.52 -1693.13,1087.33 -311.31,165.68 -646.82,286.49 -992.69,360.75 -319.94,67.3 -679.68,119.06 -1004.81,56.93 -152.18,-29.36 -299.18,-91.49 -408.19,-205.37 -105.5,-112.18 -162.57,-258.87 -191.93,-409.06 -63.99,-326.2 -34.63,-695.5 72.61,-1009.63 107.27,-314.13 316.51,-578.17 544.75,-812.93 236.95,-243.31 496.39,-467.69 750.64,-690.31 613.94,-538.51 1250.36,-1052.83 1907.55,-1539.52 25.94,-20.74 1.75,-65.62 -25.94,-46.6z"/>
    <path class="fil3" d="M11088 15738.45c567.24,-219.19 1080.93,-547.06 1568.63,-906.07 240.37,-176.06 477.3,-359.01 712.56,-541.94 231.75,-181.25 453.07,-372.82 632.92,-605.81 20.77,-25.89 -24.18,-51.75 -44.92,-25.89 -183.31,238.21 -413.39,429.76 -648.57,614.46 -231.76,181.18 -465.19,360.68 -703.87,534.99 -477.33,348.61 -977.12,669.69 -1530.56,881.93 -31.14,10.39 -17.32,60.45 13.81,48.33z"/>
    <path class="fil3" d="M13343.25 14285.25c333.75,279.63 510.19,712.81 463.44,1146 -3.45,32.81 48.42,32.81 51.92,0 46.7,-445.26 -136.61,-894 -479.05,-1182.24 -24.24,-22.44 -60.57,13.79 -36.31,36.24z"/>
    <path class="fil3" d="M13803.24 14949.76c98.58,-29.39 185.08,-112.21 268.06,-170.88 103.75,-72.5 205.82,-145 309.57,-217.49 27.69,-18.95 1.75,-63.83 -25.94,-44.88 -93.37,65.62 -188.5,132.94 -281.88,198.49 -86.5,60.45 -181.63,153.62 -283.63,184.68 -32.86,8.64 -19.04,58.7 13.82,50.08z"/>
    <path class="fil3" d="M13517.86 14435.39c195.45,-81.07 375.33,-191.58 537.88,-327.88 25.93,-22.44 -12.12,-58.7 -36.31,-36.26 -153.95,131.2 -326.88,236.44 -513.61,314.13 -31.21,13.82 -17.32,63.8 12.04,50.01z"/>
    <path class="fil3" d="M14036.74 14085.07c32.82,0 32.82,-51.82 0,-51.82 -32.88,0 -32.88,51.82 0,51.82z"/>
    <path class="fil3" d="M14098.99 14022.95c29.38,-69.07 60.49,-145.02 115.89,-198.5 74.36,-72.52 164.31,-62.13 259.37,-41.46 176.43,39.69 349.37,94.94 522.31,145.02 160.86,44.86 321.68,84.57 487.7,103.56 96.87,10.3 178.18,22.44 264.61,65.55 63.99,31.06 119.32,62.13 190.25,69.07 32.88,3.43 32.88,-48.31 0,-51.8 -95.12,-8.65 -169.51,-74.2 -259.44,-103.59 -89.93,-29.29 -190.25,-27.54 -283.63,-43.11 -204.05,-32.81 -402.92,-94.93 -600.12,-153.63 -96.8,-27.55 -193.67,-55.18 -292.25,-77.63 -72.61,-15.56 -148.75,-34.55 -221.36,-12.11 -126.26,38 -186.83,172.63 -233.5,284.81 -12.08,31.06 38.05,44.88 50.17,13.82z"/>
    <path class="fil3" d="M14374 14599.37c370.06,-55.25 736.67,-63.87 1110.26,-70.75 129.73,-1.74 268.06,-17.24 371.85,-101.88 88.21,-72.42 138.31,-177.73 114.15,-289.94 -6.95,-32.74 -57.07,-18.99 -50.13,13.82 32.81,157.07 -109.02,272.7 -249.07,307.26 -143.58,34.51 -299.2,17.24 -446.2,20.69 -290.55,5.17 -577.6,29.31 -864.73,72.49 -32.88,3.45 -17.31,53.51 13.87,48.31z"/>
    <path class="fil3" d="M15686.63 14255.88c127.98,-91.44 257.69,-182.95 385.67,-274.37 8.63,-58.7 36.31,-186.45 141.83,-295.13 31.11,-32.81 103.75,-108.76 212.67,-129.45 114.19,-22.42 202.39,29.32 300.94,74.2 159.12,72.49 313,100.13 617.44,158.81 240.38,44.88 361.44,67.32 534.38,58.63 235.18,-13.75 402.94,-75.95 503.24,22.44 10.39,10.37 53.62,57 50.2,113.93 -5.2,72.49 -83.01,119.05 -145.33,155.31 -271.48,155.37 -423.68,200.25 -423.68,200.25 -383.93,112.13 -577.61,169.13 -743.67,182.95 -134.88,10.3 -326.88,15.5 -558.57,-20.76 -67.51,231.3 -271.56,379.7 -463.51,367.63 -247.3,-15.5 -475.63,-293.39 -411.61,-614.44z"/>
    <path class="fil2" d="M13203.12 12730.18c38.06,-115.6 108.95,-262.3 242.13,-310.6 86.5,-31.07 165.99,-10.4 192,-3.45 160.82,39.68 491.12,-17.32 1150.06,-129.5 326.88,-55.18 740.17,-136.32 1215.8,-257.12 1.71,87.99 0,203.62 -5.17,338.24 -12.14,302.05 -43.25,529.87 -50.2,583.37 -29.36,214.02 -81.26,569.57 -238.63,1001.01 -39.8,110.5 -79.55,201.94 -107.24,264.07 67.44,31.06 140.06,72.49 210.99,131.17 292.25,233.01 377.01,562.63 404.7,702.45 -41.51,50.06 -103.75,124.25 -183.31,208.8 -321.69,341.76 -619.14,533.31 -1186.44,883.7 -349.33,215.74 -605.32,372.8 -1015.18,614.43 -498.07,293.39 -901.02,521.2 -1402.56,664.44 -124.51,36.26 -321.69,84.57 -570.69,58.68 -121.06,-12.05 -339,-34.49 -548.27,-186.36 -268.06,-193.32 -352.79,-476.38 -387.42,-600.63 -77.81,-277.87 -48.38,-538.49 24.24,-809.44 50.12,-189.87 231.75,-819.82 863,-1529.19 126.26,-141.5 485.93,-460.8 1201.94,-1099.37 172.94,-153.62 314.74,-279.57 409.87,-362.44 -72.62,-55.25 -145.26,-108.75 -219.62,-162.26z"/>
    <path class="fil4" d="M15555.19 12252.12c-39.82,151.89 -103.77,371.08 -200.64,628.25 -883.75,2336.88 -2858.81,3346.51 -2697.92,3598.51 117.61,186.38 1245.19,-277.89 2058.04,-766.32 608.77,-365.88 1061.89,-757.68 1364.51,-1052.81 -48.43,-70.75 -122.74,-167.36 -235.18,-258.87 -108.95,-88 -212.74,-141.5 -290.58,-174.31 53.65,-77.69 124.58,-195 185.08,-345.19 39.76,-96.64 74.36,-200.2 119.32,-410.76 72.68,-333.12 102.04,-597.17 110.66,-679.99 20.77,-198.49 39.83,-455.62 36.34,-759.45 -150.45,72.5 -299.2,146.77 -449.63,220.94z"/>
    <path class="fil3" d="M15978.88 12029.51c1.75,326.17 -19.02,652.37 -63.95,976.86 -41.55,291.64 -93.45,591.95 -200.62,868.14 -115.89,298.55 -314.81,516 -555.19,721.37 -245.57,208.86 -492.87,414.26 -740.19,619.63 -283.61,236.43 -568.99,471.18 -852.62,707.62 -25.94,20.69 10.37,56.93 36.31,36.26 520.56,-431.51 1041.12,-861.26 1558.25,-1297.89 228.26,-193.3 435.8,-393.5 560.32,-671.36 121.06,-269.27 179.88,-564.38 226.55,-854.32 58.82,-365.95 86.51,-735.26 83.01,-1106.31 0,-34.52 -51.87,-34.52 -51.87,0z"/>
    <path class="fil3" d="M13232.48 12778.56c70.94,37.94 141.9,75.95 214.52,113.88 29.38,15.57 55.32,-29.31 25.93,-44.88 -70.93,-37.94 -141.8,-75.94 -214.44,-113.88 -29.43,-15.54 -55.37,29.31 -26.01,44.88z"/>
    <path class="fil3" d="M13447 12871.75c-615.69,500.5 -1262.51,995.81 -1776.19,1603.37 -442.68,522.94 -807.62,1185.68 -805.87,1888.13 0,308.93 84.73,631.68 312.99,850.87 228.31,220.89 558.62,307.2 869.93,291.64 380.46,-18.95 741.95,-169.14 1080.88,-334.82 363.19,-177.76 707.38,-388.32 1053.26,-597.12 712.48,-431.5 1508.05,-833.62 2042.5,-1491.19 20.74,-25.89 -15.57,-62.12 -36.31,-36.26 -447.94,552.31 -1077.52,906.07 -1677.63,1268.51 -330.31,200.24 -657.19,403.86 -994.37,593.74 -330.38,186.37 -674.51,364.13 -1039.45,469.44 -342.42,98.38 -724.63,119.08 -1048.06,-51.74 -311.24,-162.26 -470.36,-476.38 -503.24,-818.12 -64.02,-690.33 283.63,-1377.26 703.86,-1901.95 524.08,-654.12 1208.89,-1175.32 1855.7,-1699.99 24.24,-19.01 -12.07,-55.25 -38,-34.51z"/>
    <path class="fil3" d="M15589.75 14236.94c325.18,155.31 551.67,462.49 605.32,818.05 5.17,32.81 55.37,19.02 50.17,-13.79 -53.62,-367.63 -292.3,-690.38 -627.8,-849.14 -31.14,-13.8 -57.07,31.06 -27.69,44.88z"/>
    <path class="fil3" d="M15693.55 14281.82c69.14,-27.64 124.51,-74.24 183.33,-119.13 69.19,-53.5 140.05,-105.26 209.24,-158.76 25.94,-20.74 0,-65.62 -25.93,-44.86 -62.25,46.56 -124.52,93.19 -186.81,141.5 -60.52,46.63 -121.06,103.56 -193.7,131.17 -29.36,12.07 -17.24,62.13 13.87,50.08z"/>
    <path class="fil3" d="M16112.06 13983.19c34.56,-101.81 76.13,-201.94 131.43,-295.13 76.14,-127.68 190.25,-113.86 318.26,-81.12 198.88,50.05 389.13,126 589.68,170.88 389.13,86.32 788.69,115.63 1186.44,89.74 32.88,-1.68 32.88,-53.5 0,-51.76 -468.68,31.07 -940.82,-17.24 -1393.94,-144.99 -108.94,-31.06 -214.44,-70.75 -323.43,-101.81 -83.01,-24.19 -181.56,-51.8 -268.06,-34.49 -77.81,15.5 -122.77,74.18 -160.82,139.75 -53.62,93.24 -95.13,193.3 -129.69,295.11 -10.37,31.06 39.76,44.88 50.13,13.82z"/>
    <path class="fil3" d="M16186.42 14816.81c129.71,-98.36 257.69,-196.75 387.38,-295.13 25.94,-20.67 0,-65.55 -25.94,-44.86 -129.68,98.36 -257.67,196.75 -387.38,295.11 -25.93,20.69 0,65.58 25.94,44.88z"/>
    <path class="fil3" d="M16572.12 14509.63c421.94,91.44 852.57,22.44 1252.14,-129.45 181.56,-69.04 389.12,-146.74 544.74,-264.04 108.93,-81.15 124.49,-236.46 -19.01,-291.69 -31.18,-12.07 -45,37.94 -13.87,50.06 77.81,29.31 86.51,113.88 32.88,172.55 -25.93,29.39 -62.26,48.31 -96.87,69.08 -70.89,39.68 -143.5,75.92 -216.19,110.43 -153.87,72.49 -313.01,134.62 -477.33,182.93 -323.36,93.19 -662.36,124.25 -994.42,51.82 -31.13,-8.69 -44.95,41.37 -12.07,48.31z"/>
    <path class="fil1" d="M12065.13 7055.51c262.87,-217.52 655.49,-479.82 1179.5,-635.2 245.55,-72.43 553.44,-162.19 961.56,-127.68 626.05,53.51 1056.68,360.69 1208.92,472.87 238.63,174.3 401.2,359.01 501.5,488.43 19.06,1209.87 45,2421.45 77.81,3631.32 10.4,372.81 20.77,747.31 32.88,1120.14 -245.55,151.86 -589.74,322.67 -1025.55,422.81 -1020.38,232.98 -1869.49,-77.69 -2213.69,-227.81 -1.75,-305.51 -20.74,-764.58 -114.12,-1315.14 -152.2,-904.37 -389.12,-1268.57 -537.87,-2046.94 -74.39,-402.12 -145.25,-1006.18 -70.94,-1782.8z"/>
    <path class="fil2" d="M15192 7354.06c-84.75,93.19 -100.32,198.45 -95.12,602.32 3.42,424.56 25.94,714.5 39.8,1051.06 10.37,243.38 18.99,436.68 13.82,688.63 -5.2,317.55 -25.94,578.18 -45,752.51 -169.44,189.87 -319.94,338.29 -432.31,445.3 -252.52,239.88 -527.5,498.75 -933.94,742.13 -160.82,94.94 -299.2,163.94 -392.58,207.12 -84.73,-13.82 -179.85,-34.56 -283.6,-60.45 -245.65,-62.1 -347.65,-117.36 -532.7,-117.36 -55.3,0 -229.99,0 -247.3,62.13 -15.57,51.8 81.3,132.92 157.37,172.61 70.93,36.26 102.04,25.89 172.93,58.7 79.56,37.93 131.44,93.19 162.57,134.62 -32.81,46.56 -83.01,117.31 -138.33,208.82 -63.99,106.98 -77.86,148.42 -152.17,276.12 -77.88,134.62 -117.64,201.94 -152.2,236.43 -53.62,50.05 -86.5,60.45 -326.86,167.43 -238.7,107.01 -280.2,131.2 -280.2,160.51 0,29.37 46.7,36.24 231.75,115.63 150.45,63.88 164.32,77.67 242.13,100.11 96.8,27.64 155.62,44.89 226.56,29.32 112.37,-22.44 185.05,-107.01 216.19,-151.87 15.56,13.8 53.57,43.18 103.75,44.86 39.75,0 72.63,-15.49 98.57,-36.23 108.92,-77.63 162.54,-220.89 269.81,-381.38 18.99,-27.62 86.43,-129.45 195.43,-243.38 67.44,-72.5 129.68,-126 174.68,-162.24 60.5,-13.82 150.45,-34.51 257.69,-65.57 416.74,-119.06 717.69,-262.32 970.19,-383.13 147,-70.82 313.06,-164.01 643.39,-348.68 287.05,-160.51 435.8,-250.25 567.24,-426.26 13.81,-18.99 84.75,-113.93 147,-253.75 18.99,-43.11 86.5,-196.75 122.81,-465.92 17.24,-119.13 17.24,-184.7 19.01,-557.51 3.43,-474.63 3.43,-417.68 3.43,-466.01 -1.68,-695.48 -38.01,-633.36 -50.13,-1272 -1.75,-60.36 -3.42,-224.29 -53.62,-431.43 -53.62,-224.37 -121.06,-324.5 -159.12,-374.51 -48.38,-63.87 -107.2,-139.79 -207.52,-183 -183.31,-81.05 -427.18,-15.49 -553.42,124.32z"/>
    <path class="fil5" d="M15747.12 7228.06c41.55,136.33 91.68,333.08 126.26,571.26 41.55,288.23 57.12,605.81 -36.33,1435.93 -77.81,693.81 -115.86,1040.74 -216.19,1365.19 -143.48,462.57 -247.3,799.14 -563.74,1064.88 -204.12,170.86 -427.18,250.26 -875.12,407.3 -328.63,115.63 -610.52,184.7 -804.19,227.83 -138.38,186.43 -344.2,422.86 -636.43,647.24 -228.33,175.99 -447.94,296.82 -629.5,379.68 25.94,17.25 133.11,86.32 278.43,67.32 169.44,-22.44 261.12,-143.24 276.69,-165.68 32.88,24.19 81.3,50.05 134.88,41.43 110.67,-17.24 169.49,-174.3 198.92,-245.12 63.94,-146.7 191.95,-348.64 479.01,-569.51 190.25,-50.05 447.94,-126 747.12,-239.93 416.81,-160.51 697.01,-315.82 997.93,-483.26 482.51,-269.24 591.45,-379.67 671.01,-486.68 145.32,-195 205.82,-395.25 231.76,-483.26 46.67,-157.06 55.37,-333.12 72.61,-676.56 12.14,-255.43 12.14,-452.17 12.14,-600.61 0,-255.45 -5.19,-445.26 -10.39,-609.19 -6.92,-238.18 -20.74,-517.82 -55.37,-852.64 -25.94,-243.36 -44.93,-339.99 -100.25,-448.75 -84.76,-172.56 -211,-282.99 -299.25,-346.87z"/>
    <path class="fil3" d="M15166.07 7347.12c-89.96,224.39 -100.33,466.02 -95.13,705.87 5.17,264.07 18.99,526.44 31.11,790.52 24.26,534.99 41.51,1071.75 -22.49,1605.07 -3.45,32.81 48.43,32.81 51.92,0 62.27,-521.2 48.38,-1047.64 24.19,-1570.59 -12.11,-258.87 -25.93,-517.74 -32.85,-778.37 -6.95,-250.25 -1.75,-502.25 93.37,-738.68 12.12,-31.06 -38,-44.88 -50.12,-13.82z"/>
    <path class="fil3" d="M15179.86 10403.69c-159.04,88.07 -287.05,215.74 -409.86,348.62 -133.14,143.27 -266.32,283.06 -415.07,410.81 -304.37,264.07 -646.82,481.51 -1013.43,650.62 -31.13,13.82 -3.5,58.7 25.94,44.88 352.82,-162.23 683.12,-369.3 978.87,-619.56 147,-122.55 281.88,-257.19 411.62,-396.99 134.88,-146.69 269.76,-295.13 446.19,-391.75 31.14,-19.01 5.2,-63.87 -24.26,-46.63z"/>
    <path class="fil3" d="M13353.55 11817.19c-190.18,-39.68 -382.18,-81.12 -572.44,-124.25 -95.12,-20.69 -191.92,-46.56 -288.8,-63.88 -60.49,-10.32 -124.51,-15.49 -178.13,19 -82.99,53.5 -82.99,151.89 -8.62,210.56 53.62,43.14 122.76,62.13 186.75,82.89 103.82,32.74 192,74.18 259.44,162.17 20.74,25.94 65.67,0 44.93,-25.87 -60.49,-77.69 -133.13,-132.87 -226.56,-165.68 -63.94,-22.44 -134.88,-36.26 -193.7,-69 -41.48,-22.44 -95.1,-57 -63.99,-119.13 29.43,-58.68 103.82,-53.5 157.44,-44.88 143.5,20.76 287.06,62.13 430.63,94.94 147,32.81 294,63.87 441,94.93 31.11,5.2 44.93,-44.85 12.05,-51.8z"/>
    <path class="fil3" d="M12710.25 12112.37c-76.14,139.75 -153.95,277.82 -230.01,417.64 -38.05,67.3 -70.94,139.79 -115.87,205.37 -46.74,67.3 -108.99,101.88 -181.63,136.37 -136.63,63.87 -283.63,115.63 -415.06,189.8 -58.82,34.59 -96.87,96.71 -46.68,157.07 62.25,74.26 185.06,44.88 268.07,31.06 114.12,-18.92 223.06,-56.93 326.86,-105.24 216.18,-103.56 399.49,-265.82 530.95,-465.99 18.99,-27.64 -25.94,-53.5 -45,-25.89 -115.89,179.5 -276.69,324.45 -465.19,424.56 -89.95,46.63 -186.83,84.57 -285.38,107.01 -55.32,13.82 -114.12,25.86 -172.94,27.61 -53.62,3.45 -67.44,10.4 -93.37,-43.11 -32.89,-31.13 -29.44,-51.83 8.62,-62.2 12.12,-5.12 22.51,-10.29 34.56,-15.49 110.69,-51.8 223.13,-101.81 333.82,-153.62 86.48,-39.7 171.19,-74.19 229.99,-151.89 69.19,-91.44 117.64,-200.17 172.94,-300.3 64.01,-115.63 128,-231.26 190.25,-345.19 15.56,-31.06 -29.36,-56.93 -44.93,-27.57z"/>
    <path class="fil3" d="M13500.62 12490.32c461.76,-129.44 909.68,-302 1338.57,-516.07 212.74,-107 420.23,-222.63 622.63,-350.31 181.55,-113.93 373.55,-229.56 503.24,-403.87 18.99,-27.64 -25.94,-53.5 -44.93,-25.89 -134.95,182.96 -345.94,302.01 -536.13,419.39 -193.74,119.05 -394.39,229.56 -598.44,331.37 -416.76,205.37 -850.89,371.05 -1298.81,497.05 -31.13,6.88 -17.31,56.96 13.87,48.33z"/>
    <path class="fil3" d="M15200.63 7393.75c143.55,-281.32 511.93,-217.49 693.49,-17.24 217.94,241.63 228.31,595.44 252.5,902.62 51.94,671.38 62.31,1347.94 20.81,2019.3 -20.81,326.2 -69.19,671.39 -287.13,930.26 -20.74,25.87 15.57,62.13 36.31,36.24 195.45,-234.73 262.89,-531.54 290.58,-828.42 36.3,-379.71 36.3,-764.58 32.88,-1146 -3.52,-398.7 -22.51,-799.07 -58.82,-1196.06 -27.69,-298.58 -81.31,-628.2 -328.63,-826.7 -210.99,-169.13 -563.74,-163.94 -698.69,100.13 -13.8,29.32 31.13,55.18 46.7,25.87z"/>
    <path class="fil3" d="M11942.37 13279.06c126.26,56.93 278.43,143.25 422,143.25 138.31,-1.75 240.38,-115.63 333.76,-201.92 268.06,-248.58 536.13,-497.08 804.19,-743.88 24.24,-22.45 -12.07,-58.71 -36.33,-36.26 -226.56,210.56 -453.12,419.38 -679.68,629.95 -100.32,91.49 -204.07,222.68 -330.31,279.61 -148.74,67.33 -352.81,-53.5 -485.95,-113.93 -31.18,-15.49 -57.12,29.37 -27.68,43.18z"/>
    <path class="fil3" d="M12646.26 13242.8c57.04,107.01 183.3,63.88 247.3,-10.37 126.26,-148.44 224.81,-327.87 332.05,-488.43 19.02,-27.57 -25.94,-53.5 -45,-25.86 -67.42,100.11 -134.86,200.24 -202.3,300.3 -38.05,55.25 -205.82,353.81 -287.12,198.5 -15.57,-29.36 -60.5,-3.43 -44.93,25.86z"/>
    <path class="fil3" d="M12244.99 13158.26c51.87,27.62 115.89,55.25 172.94,27.62 29.45,-15.57 41.57,-39.69 55.39,-67.3 24.16,-46.63 48.42,-82.89 93.35,-112.21 27.71,-18.99 1.75,-63.87 -25.93,-44.86 -41.48,27.62 -76.07,62.11 -100.3,106.99 -17.32,32.81 -27.69,72.49 -72.64,75.94 -32.86,3.43 -69.19,-17.24 -96.87,-31.06 -27.62,-13.82 -55.3,29.31 -25.94,44.88z"/>
    <path class="fil2" d="M11890.49 3296.46c-60.56,122.53 -121.06,327.92 -140.12,395.22 -27.62,96.66 -89.93,322.75 -124.49,623.05 -19.02,165.69 -39.76,346.92 -22.51,586.8 8.69,113.93 20.76,293.41 88.18,516.05 45,151.89 110.69,371.07 288.87,595.44 155.65,195.02 333.76,317.55 475.58,391.79 89.93,1.7 198.88,-3.42 319.94,-25.86 217.94,-41.44 387.43,-122.58 501.54,-188.15 15.57,88.01 36.34,181.2 62.27,277.82 53.62,200.26 119.32,376.25 185.06,528.14 70.86,-12.07 155.62,-32.77 245.57,-74.2 285.36,-132.87 421.99,-377.93 470.44,-479.81 -25.94,-100.06 -46.71,-208.82 -65.77,-321 -65.67,-419.39 -48.38,-793.91 -6.87,-1097.67 36.3,12.07 95.12,27.61 167.76,24.17 141.8,-8.63 238.61,-86.3 287.06,-127.73 41.5,-34.51 230,-201.92 223.13,-450.45 -1.75,-58.7 -5.2,-201.94 -107.27,-279.59 -95.12,-70.77 -223.06,-44.88 -316.49,-25.89 -107.19,22.42 -186.75,67.3 -235.18,98.36 36.31,-119.07 112.42,-424.55 0,-780.09 -24.19,-75.95 -185.08,-559.21 -658.93,-768.02 -643.33,-286.52 -1416.38,138.07 -1637.77,581.62z"/>
    <path class="fil6" d="M13844.74 3306.8c13.82,160.52 24.26,393.52 0,669.67 -74.36,837.07 -406.44,1418.69 -492.87,1563.66 -131.43,220.91 -356.24,541.93 -716.01,857.74 107.27,-13.8 230.01,-37.94 361.44,-84.55 361.52,-127.7 603.57,-346.89 735,-490.15 10.44,191.57 43.26,424.58 121.07,680.03 34.63,108.73 72.68,208.79 112.44,298.56 91.67,-119.08 181.63,-238.21 273.26,-359.01 -19.02,-112.18 -36.33,-231.24 -48.45,-353.79 -39.76,-371.05 -39.76,-712.79 -18.99,-1016.55 77.81,1.73 190.25,-5.17 309.56,-51.78 522.31,-207.09 819.74,-1030.37 537.88,-1479.09 -12.14,-19 -74.39,-115.63 -202.4,-201.92 -396,-265.8 -899.29,-63.88 -971.93,-32.82z"/>
    <path class="fil1" d="M11764.26 3639.92c-34.63,-119.1 -83.08,-346.91 -32.89,-626.5 15.57,-86.32 69.19,-364.18 259.45,-583.37 278.43,-319.28 627.73,-258.88 1080.87,-421.11 287.05,-101.84 681.38,-315.83 1080.92,-819.8 -36.35,186.4 -72.68,374.52 -108.99,560.9 62.24,17.27 271.56,62.15 486,-43.13 356.24,-174.31 387.38,-595.44 389.12,-614.41 43.26,96.64 121.07,310.65 86.44,583.34 -24.19,186.41 -91.63,326.2 -140.06,410.77 20.74,22.44 131.44,136.34 259.44,119.08 155.63,-20.7 300.92,-232.99 259.37,-507.41 34.63,101.84 76.14,269.25 65.74,474.62 -13.79,250.25 -96.87,438.38 -152.17,540.21 13.82,12.07 102,91.47 226.56,75.95 108.94,-13.82 202.32,-93.22 238.63,-205.4 -8.62,115.63 -29.39,283.04 -96.83,474.62 -91.67,258.89 -167.74,279.61 -205.79,464.26 -60.57,289.97 95.12,388.33 53.62,647.23 -34.63,217.46 -176.43,353.81 -356.27,528.11 -326.86,315.85 -702.16,486.71 -1016.93,581.63 13.82,-96.64 29.39,-193.3 43.25,-289.94 39.76,24.16 108.95,56.95 195.38,53.5 176.44,-6.9 287.13,-163.96 345.95,-248.53 67.41,-94.93 179.86,-257.17 119.31,-431.48 -50.12,-141.52 -183.33,-200.19 -195.45,-205.37 -155.62,-65.59 -356.24,-6.92 -485.93,151.87 -72.68,-284.76 -143.57,-567.83 -216.18,-852.59 -245.63,-155.34 -489.45,-308.93 -735.08,-464.27 -121.06,-22.44 -451.37,-67.32 -821.43,96.66 -373.56,165.69 -563.81,447 -626.05,550.56z"/>
    <path class="fil3" d="M11738.32 3633.02c-147,548.82 -235.25,1132.19 -100.32,1693.09 110.69,455.65 390.8,975.14 868.18,1123.58 31.13,10.37 44.95,-39.68 13.82,-50.07 -479.06,-148.42 -747.12,-688.63 -845.7,-1144.26 -115.86,-535.04 -27.68,-1087.32 112.37,-1608.54 10.4,-31.06 -39.73,-44.88 -48.35,-13.8z"/>
    <path class="fil3" d="M12544.19 6441.07c797.31,-81.14 1463.12,-655.86 1649.92,-1435.98 6.88,-32.79 -41.5,-46.58 -50.17,-13.8 -181.56,754.21 -823.2,1318.59 -1599.75,1397.96 -32.82,3.44 -34.56,55.25 0,51.82z"/>
    <path class="fil3" d="M14149.11 5018.91c356.32,217.46 703.89,-238.18 726.38,-557.46 12.12,-169.16 -65.69,-298.58 -233.43,-346.91 -155.69,-44.89 -325.18,1.72 -435.87,119.08 -22.45,24.16 13.86,60.4 36.37,36.26 91.63,-98.39 229.99,-141.55 363.12,-112.21 69.19,15.54 145.32,53.5 185.06,115.65 43.25,67.3 38.08,160.49 27.68,234.71 -41.48,267.52 -339,650.67 -643.37,464.27 -27.61,-15.52 -55.3,29.34 -25.94,46.61z"/>
    <path class="fil3" d="M14145.69 5015.46c-67.44,478.06 -43.25,963.05 70.87,1432.49 8.69,32.81 58.81,18.99 50.19,-13.82 -112.44,-460.8 -136.63,-937.16 -70.93,-1404.88 3.49,-32.78 -46.71,-46.6 -50.13,-13.79z"/>
    <path class="fil3" d="M13251.55 6197.69c53.64,279.62 136.63,550.56 250.77,812.86 13.87,31.07 58.79,3.52 45,-25.86 -112.44,-257.13 -193.7,-524.7 -245.65,-800.81 -6.87,-32.79 -55.3,-18.97 -50.12,13.81z"/>
    <path class="fil3" d="M13538.63 7017.5c333.8,-53.51 615.68,-283.07 741.92,-595.44 12.14,-31.07 -37.99,-44.86 -50.13,-13.8 -119.29,296.86 -390.87,509.13 -705.61,559.18 -32.88,5.18 -18.99,55.25 13.82,50.06z"/>
    <path class="fil3" d="M13293.05 6258.07c70.94,3.5 119.32,-44.86 172.94,-86.27 70.94,-55.22 138.38,-113.9 200.62,-176.05 115.89,-115.63 209.27,-248.53 269.81,-400.39 12.07,-31.07 -38.05,-44.89 -50.17,-13.82 -53.62,134.62 -136.63,253.7 -236.93,357.26 -44.95,48.33 -93.38,91.48 -143.5,134.62 -55.4,46.61 -134.96,136.35 -212.77,132.9 -32.86,-1.73 -32.86,50.05 0,51.75z"/>
    <path class="fil3" d="M13296.5 6230.51c147,-94.94 283.63,-203.67 411.61,-322.75 24.19,-22.44 -12.11,-60.4 -36.3,-36.26 -124.49,117.38 -257.7,222.66 -401.25,315.85 -29.38,15.54 -1.7,60.4 25.94,43.16z"/>
    <path class="fil3" d="M12279.62 3733.11c-96.88,440.1 -152.2,887.13 -164.32,1337.58 0,25.89 34.56,34.51 48.45,13.79 67.44,-107.01 134.86,-215.74 202.3,-322.72 17.32,-27.62 -27.61,-55.23 -44.93,-25.89 -67.44,107.01 -134.88,215.71 -202.37,322.72 15.57,5.2 32.86,8.65 48.43,13.82 12.14,-445.27 67.44,-888.85 162.56,-1323.76 6.95,-34.53 -43.25,-48.33 -50.12,-15.54z"/>
    <path class="fil3" d="M12348.81 5719.63c-41.55,-77.67 -69.19,-160.51 -76.14,-248.55 -5.17,-62.13 8.65,-314.1 126.26,-213.99 62.25,53.5 53.63,170.86 55.33,248.53 0,36.23 0,74.19 -3.45,110.45 -1.75,25.89 -5.2,51.78 -10.37,75.95 -44.96,31.06 -79.56,29.34 -102,-3.45 -22.51,-24.17 -60.57,12.07 -36.38,36.23 74.36,75.95 171.26,79.4 192,-39.7 15.57,-84.57 15.57,-174.31 8.62,-258.88 -5.2,-67.32 -5.2,-163.96 -55.3,-215.74 -74.38,-75.94 -179.88,-5.17 -209.27,75.95 -53.62,144.97 -1.74,327.92 67.45,459.07 13.81,29.36 58.81,3.47 43.25,-25.87z"/>
    <path class="fil3" d="M12706.75 4166.32c51.92,243.35 371.86,262.32 466.99,37.96 12.07,-31.07 -38.06,-44.86 -50.18,-13.8 -77.81,182.93 -326.88,148.42 -366.63,-37.98 -6.93,-31.07 -57.05,-18.97 -50.18,13.82z"/>
    <path class="fil3" d="M12604.75 3567.43c65.67,-146.72 235.18,-217.47 390.88,-184.68 160.79,34.51 283.63,158.79 363.19,295.13 17.24,29.34 62.24,3.45 44.92,-25.89 -91.67,-157.06 -236.92,-296.85 -423.68,-324.47 -167.81,-24.16 -347.62,55.23 -420.31,212.29 -13.82,32.79 31.18,58.68 45,27.62z"/>
    <path class="fil3" d="M11591.32 3624.38c46.68,-96.64 127.94,-201.92 247.3,-200.2 114.12,1.73 197.12,101.84 254.2,189.85 17.31,27.62 62.24,1.73 45,-25.89 -65.77,-105.28 -164.32,-214.01 -299.2,-215.74 -138.38,-1.72 -235.25,112.18 -290.55,226.09 -15.57,29.34 29.36,55.23 43.25,25.89z"/>
    <path class="fil3" d="M11897.37 4406.22c30.56,0 55.37,-113.6 55.37,-253.72 0,-140.1 -24.81,-253.7 -55.37,-253.7 -30.57,0 -55.3,113.6 -55.3,253.7 0,140.12 24.73,253.72 55.3,253.72z"/>
    <path class="fil2" d="M12056.48 7136.55c-5.17,63.9 -12.11,151.89 -15.54,253.77 -15.57,348.62 -1.75,612.69 3.43,683.44 13.89,229.56 45,529.86 117.63,878.5 -69.18,79.37 -172.93,196.75 -306.14,334.8 -252.49,264.07 -382.18,398.69 -589.75,538.51 -231.73,155.31 -392.55,203.62 -479.05,226.06 -108.95,25.87 -212.69,50.06 -338.93,22.44 -205.82,-46.63 -328.63,-198.49 -373.58,-257.19 -114.12,-144.95 -140.06,-286.49 -186.81,-562.63 -34.55,-201.93 -41.5,-355.49 -51.87,-652.37 -5.2,-141.5 -12.07,-314.13 -8.62,-545.37 3.42,-260.64 17.31,-569.57 55.3,-914.76 17.31,-155.32 41.5,-346.87 79.58,-564.38 -29.39,-41.36 -60.52,-82.82 -93.38,-126 -34.56,-44.86 -67.44,-87.99 -102.07,-131.12 -88.18,74.19 -174.61,150.14 -262.86,224.38 -22.45,8.62 -62.27,22.44 -110.7,17.25 -91.63,-8.63 -145.25,-72.5 -164.24,-93.19 -84.76,-96.69 -72.69,-219.22 -69.19,-243.38 119.31,-129.45 238.63,-257.15 359.69,-386.6 1.75,-74.22 12.12,-170.86 41.55,-277.87 22.44,-79.39 50.13,-144.96 76.07,-200.19 22.48,-44.88 53.62,-94.94 93.37,-145 70.94,-93.18 147,-158.78 209.32,-203.64 -50.2,22.44 -62.32,22.44 -65.76,18.97 -8.63,-13.8 72.63,-115.63 186.82,-125.98 63.92,-6.9 114.12,17.27 148.68,32.79 53.62,25.89 89.93,58.68 112.44,82.84 107.2,-91.46 214.44,-182.95 321.69,-272.69 38,22.44 76.06,48.33 114.11,74.22 88.21,60.4 167.77,120.8 238.7,179.5 -25.93,32.79 -58.81,69.03 -100.32,105.26 -69.19,60.43 -138.38,96.66 -192,120.83 32.88,10.35 91.7,34.51 121.06,91.46 29.44,55.23 17.32,115.63 0,191.58 -12.11,51.78 -27.68,93.19 -39.73,120.8 6.88,72.5 10.37,170.88 -10.39,281.34 -32.86,181.21 -108.99,315.83 -160.87,393.52 -1.7,67.3 -3.45,172.56 0,301.98 13.87,533.32 91.68,845.7 141.81,1239.19 29.45,224.39 58.81,557.51 50.19,976.89 39.76,-25.89 96.81,-67.32 160.82,-120.82 162.54,-136.3 266.36,-272.7 402.99,-472.87 134.89,-195.07 223.07,-340.02 342.45,-533.31 74.29,-126 193.68,-317.58 344.1,-560.96z"/>
    <path class="fil6" d="M10484.44 5560.84c-36.31,79.4 -72.64,160.52 -108.95,243.36 -105.49,248.53 -192,486.68 -262.86,714.49 -15.57,358.99 -24.26,659.32 -31.14,876.76 -8.69,329.67 12.07,723.17 50.13,1510.18 15.57,324.5 29.38,521.25 181.63,664.49 159.07,148.39 380.43,151.89 504.94,151.89 664.11,-1.75 1160.48,-566.13 1297.11,-730.06 -185.05,314.12 -396.04,519.49 -539.62,640.3 -162.57,136.32 -371.81,307.2 -696.94,391.74 -274.99,72.52 -399.5,56.96 -432.38,50.08 -236.93,-56.95 -368.36,-253.7 -415.04,-321 -112.44,-167.45 -148.77,-341.76 -169.51,-716.27 -20.74,-384.87 1.75,-486.73 8.69,-1016.55 5.17,-505.7 -13.89,-648.94 24.19,-999.3 22.49,-205.4 50.17,-374.51 72.61,-488.44 -67.44,-70.77 -134.88,-141.52 -202.3,-210.56 -57.07,50.05 -115.89,98.36 -174.68,148.44 -38.08,32.81 -77.84,65.55 -115.89,96.68 -34.56,3.43 -84.76,1.68 -138.38,-20.76 -138.31,-58.68 -224.81,-229.56 -181.56,-288.19 27.69,-39.71 100.33,-8.65 200.62,-8.65 172.94,1.73 288.83,-86.29 518.82,-251.97 162.56,-119.1 349.39,-252 610.51,-436.66z"/>
    <path class="fil3" d="M12034 7122.76c-399.5,550.56 -695.2,1182.23 -1200.19,1651.67 -24.26,22.45 12.07,58.71 36.3,36.26 508.45,-472.89 805.89,-1108.01 1208.89,-1662 20.74,-25.93 -24.26,-51.82 -45,-25.93z"/>
    <path class="fil3" d="M10546.68 10113.76c684.88,-44.88 1176.07,-617.88 1587.64,-1104.57 20.74,-25.87 -15.57,-62.13 -36.33,-36.26 -399.5,476.39 -883.75,1045.89 -1549.56,1090.75 -34.63,0 -34.63,51.83 -1.75,50.08z"/>
    <path class="fil3" d="M10221.55 5251.91c3.45,136.35 93.38,253.71 224.81,291.67 32.88,8.64 46.7,-41.41 13.89,-50.04 -108.99,-31.08 -183.38,-129.44 -186.83,-241.63 -1.75,-32.81 -53.62,-32.81 -51.87,0z"/>
    <path class="fil3" d="M10275.19 5236.37c17.25,-150.14 285.31,-41.41 358,-3.45 70.86,36.24 141.8,72.5 157.37,158.79 12.07,65.57 -8.7,134.62 -25.94,198.47 -8.69,32.79 41.5,46.61 50.12,13.8 24.26,-86.29 50.2,-184.66 13.87,-269.22 -34.61,-86.32 -129.73,-126 -207.54,-163.96 -79.59,-37.99 -166.02,-65.6 -255.95,-55.23 -36.3,5.17 -83.05,13.79 -112.44,37.96 -31.13,24.16 -24.19,41.43 -29.36,84.57 -3.52,31.06 48.35,31.06 51.87,-1.73z"/>
    <path class="fil3" d="M10747.3 5579.84c-5.17,131.15 24.19,258.87 -6.92,390.04 -29.38,120.81 -88.2,232.99 -147,341.74 -15.56,29.32 29.44,55.18 45,25.89 60.5,-113.93 121.04,-229.56 152.18,-353.83 32.88,-134.62 3.44,-267.52 8.62,-403.84 1.75,-34.54 -50.13,-34.54 -51.88,0z"/>
    <path class="fil3" d="M10593.38 6313.32c-39.75,909.55 221.36,1800.12 179.86,2709.69 -1.75,32.74 50.13,32.74 51.87,0 41.51,-909.57 -219.61,-1800.14 -179.85,-2709.69 1.74,-32.81 -50.13,-32.81 -51.88,0z"/>
    <path class="fil3" d="M9744.24 6332.32c51.87,72.49 107.2,141.49 169.44,205.37 22.51,24.19 58.82,-12.07 36.38,-36.24 -58.82,-62.13 -112.44,-126 -160.87,-195 -20.76,-27.64 -65.69,-1.77 -44.95,25.87z"/>
    <path class="fil3" d="M9943.11 6523.87c-98.55,560.95 -147,1130.5 -145.29,1700.01 1.74,283.06 15.61,567.8 43.25,849.18 22.49,239.89 50.17,491.89 176.43,702.45 114.12,191.55 314.74,336.5 543.05,331.37 32.83,-1.74 32.83,-53.5 0,-51.82 -319.99,8.62 -525.81,-276.12 -600.12,-555.74 -83.06,-307.2 -89.93,-642 -102.05,-957.87 -25.96,-669.64 20.74,-1342.77 136.61,-2002.02 3.45,-34.55 -46.68,-48.37 -51.88,-15.56z"/>
    <path class="fil3" d="M9616.26 5748.97c-162.57,136.35 -319.94,279.59 -468.71,429.73 -24.19,24.17 13.82,60.4 36.33,36.26 150.49,-150.16 306.12,-293.41 468.68,-429.75 25.94,-20.72 -10.37,-56.96 -36.3,-36.24z"/>
    <path class="fil3" d="M9132 6225.31c-25.93,200.2 126.24,369.31 328.61,367.63 32.81,0 32.81,-51.8 0,-51.8 -174.68,1.74 -299.24,-144.95 -276.73,-315.83 5.17,-32.79 -46.7,-32.79 -51.88,0z"/>
    <path class="fil3" d="M9180.43 6213.24c181.56,5.17 307.82,167.38 269.81,343.44 -6.92,32.83 43.18,46.63 50.13,13.82 46.7,-212.32 -102.05,-402.14 -319.94,-409.04 -32.88,0 -32.88,51.78 0,51.78z"/>
    <path class="fil3" d="M9521.13 6561.88c197.17,-179.51 397.75,-357.29 589.75,-541.94 88.18,-84.59 172.94,-170.88 252.49,-264.07 43.26,-50.06 152.18,-148.42 153.95,-217.47 0,-8.62 -5.2,-18.99 -12.14,-22.44 -3.43,-1.72 -6.92,-3.45 -8.62,-3.45 -10.37,-5.17 -24.24,-5.17 -31.14,3.45 -1.75,1.73 -3.49,3.45 -5.17,6.9 -20.77,25.89 15.57,62.15 36.31,36.26 1.7,-1.72 3.44,-3.47 5.19,-6.92 -10.39,1.72 -20.76,3.45 -31.13,3.45 -3.5,-15.52 -8.69,-15.52 -15.57,1.75 -8.69,12.07 -17.31,24.16 -27.68,36.23 -20.74,25.89 -39.81,51.78 -62.25,77.67 -34.63,43.13 -72.68,84.57 -108.99,126 -76.06,82.82 -155.65,160.49 -236.95,236.43 -176.36,165.69 -356.25,326.2 -534.38,490.14 -25.94,24.19 12.14,60.45 36.33,38.01z"/>
    <path class="fil3" d="M9543.62 5845.61c12.12,-82.84 24.19,-165.69 36.31,-248.53 8.62,-62.13 15.56,-131.17 50.12,-186.4 79.56,-127.7 192,-36.24 252.5,50.05 25.93,36.24 50.19,75.95 76.13,112.18 13.82,20.72 81.26,94.94 72.64,120.83 8.62,-6.92 17.29,-12.09 24.24,-18.99 -3.5,0 -5.2,0 -8.7,0 -32.86,-1.72 -32.86,50.05 0,51.78 3.5,0 5.2,0 8.7,0 12.07,0 22.44,-8.62 24.18,-18.99 12.12,-43.16 -17.31,-69.03 -39.8,-103.56 -43.2,-63.85 -84.68,-129.45 -129.68,-191.58 -46.7,-63.85 -107.2,-125.97 -193.7,-117.35 -83.01,8.62 -133.19,72.49 -159.12,146.69 -43.25,122.55 -46.7,262.35 -65.7,390.07 -3.49,32.79 46.68,46.59 51.88,13.8z"/>
    <path class="fil3" d="M9624.88 5650.58c46.75,91.49 124.56,184.68 235.25,191.58 91.61,6.92 178.11,-44.86 202.3,-134.62 8.69,-32.79 -41.5,-46.59 -50.13,-13.8 -22.48,82.84 -114.19,113.91 -190.25,88.02 -72.61,-25.89 -119.31,-89.74 -152.17,-155.34 -15.57,-31.06 -60.57,-5.17 -45,24.16z"/>
    <path class="fil3" d="M9688.87 5314.04c8.69,-84.57 105.5,-107.01 171.26,-84.57 69.19,22.44 122.74,84.57 171.19,134.63 38.05,39.68 112.42,94.91 122.81,150.14 13.8,74.22 -79.58,124.27 -141.83,143.27 -31.11,8.62 -19.06,58.67 13.82,50.03 76.14,-22.42 186.81,-89.74 198.88,-179.48 5.19,-36.26 -17.25,-55.23 -41.51,-81.12 -48.42,-51.78 -95.12,-101.84 -145.25,-151.89 -67.44,-69.02 -153.92,-143.25 -257.69,-125.98 -77.81,12.07 -134.93,63.85 -143.55,143.25 -3.45,34.51 48.42,34.51 51.87,1.72z"/>
    <path class="fil3" d="M9782.25 5186.32c24.23,-27.62 36.38,-63.85 58.82,-91.47 55.37,-69.05 141.8,-5.17 198.87,36.24 110.67,77.67 228.31,219.19 127.99,353.81 -19,27.61 25.93,53.5 45,25.89 107.19,-144.97 1.7,-312.38 -121.07,-405.59 -57.12,-43.14 -143.55,-120.8 -221.36,-98.36 -69.19,18.96 -81.31,98.36 -124.56,144.96 -22.44,22.45 13.87,58.68 36.31,34.52z"/>
    <path class="fil3" d="M9956.93 5029.25c60.57,-74.19 140.13,-151.86 233.51,-74.19 62.24,50.03 102,120.8 124.49,195.02 10.39,31.06 58.81,18.97 50.19,-13.82 -29.43,-100.09 -96.87,-215.74 -197.19,-257.15 -102,-41.43 -186.74,39.69 -247.3,113.91 -20.77,24.16 15.56,62.12 36.3,36.23z"/>
    <path class="fil3" d="M10339.19 5036.17c107.17,-91.48 214.44,-182.95 321.61,-272.69 25.94,-22.44 -12.05,-58.7 -36.31,-36.26 -107.17,91.49 -214.44,182.95 -321.68,272.69 -25.94,22.45 12.12,58.68 36.38,36.26z"/>
    <path class="fil3" d="M10721.37 5257.09c102.07,-74.22 200.62,-153.62 292.25,-239.91 24.26,-22.44 -12.07,-58.67 -36.31,-36.23 -89.93,82.82 -183.31,160.48 -281.88,231.26 -27.69,18.99 -1.75,63.85 25.94,44.88z"/>
    <path class="fil7 str0" d="M11497.87 5127.64c576.95,0 1044.61,-466.73 1044.61,-1042.44 0,-575.72 -467.66,-1042.44 -1044.61,-1042.44 -576.87,0 -1044.57,466.72 -1044.57,1042.44 0,575.71 467.7,1042.44 1044.57,1042.44z"/>
    <path class="fil3" d="M10864.94 4212.92c383.93,-245.08 776.48,-476.36 1177.75,-693.82 29.36,-15.52 3.42,-60.41 -25.94,-44.86 -401.27,215.71 -793.82,447 -1177.75,693.8 -27.68,18.99 -1.74,63.85 25.94,44.88z"/>
    <path class="fil3" d="M10908.12 4665.1c316.49,-231.26 636.43,-453.9 963.31,-671.37 27.68,-18.99 1.75,-63.87 -25.94,-44.88 -325.11,217.47 -646.82,441.83 -963.3,671.39 -27.64,18.97 -1.71,63.85 25.93,44.86z"/>
   </g>
  </g>
  <path class="fil8" d="M-7.13 19008.05l21000 0 0 -18999.97 -21000 0 0 18999.97z"/>
 </g>
</svg>
