<?xml version="1.0" encoding="UTF-8"?>
<!DOCTYPE svg PUBLIC "-//W3C//DTD SVG 1.1//EN" "http://www.w3.org/Graphics/SVG/1.1/DTD/svg11.dtd">
<!-- Creator: CorelDRAW 2020 (64 Bit) -->
<svg xmlns="http://www.w3.org/2000/svg" xml:space="preserve" width="45.4098mm" height="45.4098mm" version="1.1" style="shape-rendering:geometricPrecision; text-rendering:geometricPrecision; image-rendering:optimizeQuality; fill-rule:evenodd; clip-rule:evenodd"
viewBox="0 0 4540.98 4540.98"
 xmlns:xlink="http://www.w3.org/1999/xlink"
 xmlns:xodm="http://www.corel.com/coreldraw/odm/2003">
 <defs>
  <style type="text/css">
   <![CDATA[
    .fil0 {fill:#1C69AF}
   ]]>
  </style>
 </defs>
 <g id="Camada_x0020_1">
  <metadata id="CorelCorpID_0Corel-Layer"/>
  <path class="fil0" d="M678.76 1720.16l660.4 0 0 2150.53 -660.4 0 0 -2150.53zm1752.59 1100.67l0 1049.86 -660.4 0 0 -2150.53 635 0 0 287.87c40.37,-10.78 49.18,-62.75 112.11,-124.96 46.49,-45.95 77.25,-77.98 133.78,-111.76 125.52,-75.01 226.58,-110.41 406.04,-110.41 796.18,0 804.34,622.28 804.34,1227.66l-8.47 982.13 -660.4 0 0 -1159.93c0,-294.39 -97.89,-465.67 -372.53,-465.67 -72.87,0 -138.12,21.89 -189.36,47.71 -171.46,86.39 -200.11,328.4 -200.11,528.03zm-1464.73 -2175.93c125.62,0 212.03,4.09 315.64,107.69 258.65,258.66 37.11,740.74 -368.54,647.95 -133.85,-30.62 -248.78,-145.56 -279.4,-279.4 -60.82,-265.87 148.27,-476.24 332.3,-476.24zm-973.66 -270.93l0 3809.98c0,112.99 33.95,188.35 87.1,251.57 45.8,54.46 138.07,112.5 234.63,112.5l3903.12 0c82.89,0 165.14,-45.25 209.77,-86.56 41.43,-38.35 103.5,-126.22 103.5,-201.31l0 -3962.38c0,-73.21 -59.26,-158.62 -99.17,-197.17 -45.11,-43.57 -129.05,-90.7 -214.1,-90.7l-3903.12 0c-176.36,0 -321.73,157.44 -321.73,364.07z"/>
 </g>
</svg>
